<svg width="20" height="20" viewBox="0 0 20 20" fill="none" xmlns="http://www.w3.org/2000/svg">
<path fill-rule="evenodd" clip-rule="evenodd" d="M10 20C15.5228 20 20 15.5228 20 10C20 4.47715 15.5228 0 10 0C4.47715 0 0 4.47715 0 10C0 15.5228 4.47715 20 10 20ZM5.36612 5.36612C5.85427 4.87796 6.64573 4.87796 7.13388 5.36612L10 8.23223L12.8661 5.36612C13.3543 4.87796 14.1457 4.87796 14.6339 5.36612C15.122 5.85427 15.122 6.64573 14.6339 7.13388L11.7678 10L14.6339 12.8661C15.122 13.3543 15.122 14.1457 14.6339 14.6339C14.1457 15.122 13.3543 15.122 12.8661 14.6339L10 11.7678L7.13388 14.6339C6.64573 15.122 5.85427 15.122 5.36612 14.6339C4.87796 14.1457 4.87796 13.3543 5.36612 12.8661L8.23223 10L5.36612 7.13388C4.87796 6.64573 4.87796 5.85427 5.36612 5.36612Z" fill="black"/>
</svg>
