<svg width="20" height="20" viewBox="0 0 20 20" fill="none" xmlns="http://www.w3.org/2000/svg">
<path d="M8.125 10C9.16053 10 10 9.16053 10 8.125C10 7.08947 9.16053 6.25 8.125 6.25C7.08947 6.25 6.25 7.08947 6.25 8.125C6.25 9.16053 7.08947 10 8.125 10Z" fill="black"/>
<path d="M15 13.5714L11.875 10L8.78049 13.5366L6.875 11.25L5 13.5V15H15V13.5714Z" fill="black"/>
<path fill-rule="evenodd" clip-rule="evenodd" d="M1.25 3.75C1.25 2.36929 2.36929 1.25 3.75 1.25H16.25C17.6307 1.25 18.75 2.36929 18.75 3.75V16.25C18.75 17.6307 17.6307 18.75 16.25 18.75H3.75C2.36929 18.75 1.25 17.6307 1.25 16.25V3.75ZM3.75 3.75H16.25V16.25H3.75L3.75 3.75Z" fill="black"/>
</svg>
