<svg width="16" height="17" viewBox="0 0 16 17" fill="none" xmlns="http://www.w3.org/2000/svg">
<path fill-rule="evenodd" clip-rule="evenodd" d="M6.41423 1.5C5.8838 1.5 5.37509 1.71071 5.00001 2.08579L1.29611 5.78969C1.11326 5.9709 1 6.22223 1 6.5V13.5C1 14.6046 1.89543 15.5 3 15.5H13C14.1046 15.5 15 14.6046 15 13.5V6.5C15 6.22386 14.8881 5.97386 14.7071 5.7929L11 2.08579C10.6249 1.71071 10.1162 1.5 9.5858 1.5H6.41423ZM11.5858 5.5L9.5858 3.5H9V5.5H11.5858ZM7 3.5H6.41423L4.41423 5.5H7V3.5ZM3 7.5H13V13.5H3V7.5Z" fill="#666666"/>
</svg>
