<svg width="14" height="14" viewBox="0 0 14 14" fill="none" xmlns="http://www.w3.org/2000/svg">
<path fill-rule="evenodd" clip-rule="evenodd" d="M7 0C10.866 0 14 3.13401 14 7C14 10.866 10.866 14 7 14C3.13401 14 0 10.866 0 7C0 3.13401 3.13401 0 7 0ZM7.96516 8.00118H6.03484C6.12137 9.23204 6.36482 10.3402 6.71697 11.1619C6.79349 11.3405 6.87172 11.4969 6.94825 11.6293L7 11.713L7.05175 11.6293C7.10277 11.541 7.15454 11.4421 7.20607 11.333L7.28303 11.1619C7.63518 10.3402 7.87863 9.23204 7.96516 8.00118ZM4.03044 8.001L2.10026 8.00119C2.40313 9.49139 3.3688 10.7408 4.67611 11.4283C4.3391 10.4655 4.10953 9.28988 4.03044 8.001ZM11.8997 8.00119L9.96956 8.001C9.89046 9.28988 9.6609 10.4655 9.32372 11.4277C10.6312 10.7408 11.5969 9.49139 11.8997 8.00119ZM4.67628 2.57226L4.59437 2.61568C3.32832 3.31183 2.39636 4.5404 2.10006 5.99981L4.03038 6C4.10942 4.71073 4.33902 3.53479 4.67628 2.57226ZM7 2.286L6.94825 2.37071C6.87172 2.50312 6.79349 2.65954 6.71697 2.83809C6.36472 3.66 6.12124 4.76856 6.03477 5.99982H7.96523C7.87876 4.76856 7.63528 3.66 7.28303 2.83809C7.20651 2.65954 7.12828 2.50312 7.05175 2.37071L7 2.286ZM9.32389 2.57172L9.38064 2.73984C9.68681 3.66995 9.89511 4.78462 9.96962 6L11.8999 5.99981C11.5973 4.50916 10.6315 3.25935 9.32389 2.57172Z" fill="black"/>
</svg>
