<svg width="71" height="24" viewBox="0 0 71 24" fill="none" xmlns="http://www.w3.org/2000/svg">
<path d="M30.2142 12.3081C30.2142 15.6394 27.6065 18.0941 24.4063 18.0941C21.2061 18.0941 18.5984 15.6394 18.5984 12.3081C18.5984 8.95328 21.2061 6.52197 24.4063 6.52197C27.6065 6.52197 30.2142 8.95328 30.2142 12.3081ZM27.6718 12.3081C27.6718 10.2263 26.1604 8.80197 24.4063 8.80197C22.6522 8.80197 21.1408 10.2263 21.1408 12.3081C21.1408 14.3689 22.6522 15.8141 24.4063 15.8141C26.1604 15.8141 27.6718 14.3663 27.6718 12.3081Z" fill="black"/>
<path d="M42.7437 12.3081C42.7437 15.6394 40.1361 18.0941 36.9358 18.0941C33.7356 18.0941 31.1279 15.6394 31.1279 12.3081C31.1279 8.95589 33.7356 6.52197 36.9358 6.52197C40.1361 6.52197 42.7437 8.95328 42.7437 12.3081ZM40.2013 12.3081C40.2013 10.2263 38.69 8.80197 36.9358 8.80197C35.1817 8.80197 33.6704 10.2263 33.6704 12.3081C33.6704 14.3689 35.1817 15.8141 36.9358 15.8141C38.69 15.8141 40.2013 14.3663 40.2013 12.3081Z" fill="black"/>
<path d="M54.7508 6.87154V17.2594C54.7508 21.5324 52.2293 23.2776 49.2483 23.2776C46.4423 23.2776 44.7534 21.402 44.1165 19.8681L46.33 18.9472C46.7242 19.8889 47.69 21.0002 49.2457 21.0002C51.1538 21.0002 52.3363 19.8237 52.3363 17.6089V16.7768H52.2476C51.6785 17.4785 50.5822 18.0915 49.1987 18.0915C46.3039 18.0915 43.6519 15.5715 43.6519 12.3289C43.6519 9.06284 46.3039 6.52197 49.1987 6.52197C50.5796 6.52197 51.6759 7.13502 52.2476 7.81589H52.3363V6.87415H54.7508V6.87154ZM52.5164 12.3289C52.5164 10.2915 51.1565 8.80197 49.4258 8.80197C47.6717 8.80197 46.2021 10.2915 46.2021 12.3289C46.2021 14.3455 47.6717 15.8141 49.4258 15.8141C51.1565 15.8141 52.5164 14.3455 52.5164 12.3289Z" fill="black"/>
<path d="M58.7317 0.782715V17.7392H56.252V0.782715H58.7317Z" fill="black"/>
<path d="M68.395 14.2121L70.3684 15.5269C69.7315 16.4686 68.1966 18.0912 65.5446 18.0912C62.2556 18.0912 59.7993 15.5503 59.7993 12.3051C59.7993 8.86426 62.2765 6.51904 65.2601 6.51904C68.2645 6.51904 69.7341 8.90861 70.2144 10.1999L70.478 10.8573L62.7385 14.0608C63.331 15.2217 64.2525 15.8138 65.5446 15.8138C66.8393 15.8138 67.7372 15.1773 68.395 14.2121ZM62.3209 12.1303L67.4945 9.98339C67.2099 9.26078 66.3538 8.7573 65.3462 8.7573C64.0541 8.7573 62.2556 9.8973 62.3209 12.1303Z" fill="black"/>
<path d="M9.21175 10.8026V8.34778H17.489C17.5699 8.7756 17.6117 9.28169 17.6117 9.82951C17.6117 11.6713 17.1079 13.9486 15.4843 15.5713C13.9051 17.2147 11.8873 18.0913 9.21436 18.0913C4.26002 18.0913 0.0939941 14.0582 0.0939941 9.10691C0.0939941 4.1556 4.26002 0.122559 9.21436 0.122559C11.9552 0.122559 13.9077 1.19734 15.3747 2.59821L13.6414 4.33038C12.5895 3.3443 11.1643 2.57734 9.21175 2.57734C5.59388 2.57734 2.76433 5.49125 2.76433 9.10691C2.76433 12.7226 5.59388 15.6365 9.21175 15.6365C11.5584 15.6365 12.8949 14.6947 13.7511 13.8391C14.4454 13.1452 14.9022 12.1539 15.0823 10.7999L9.21175 10.8026Z" fill="black"/>
</svg>
