<svg width="52" height="32" viewBox="0 0 52 32" fill="none" xmlns="http://www.w3.org/2000/svg">
<path d="M32.8492 28.5774H18.8479V3.42274H32.8492V28.5774Z" fill="#FF5A00"/>
<path d="M19.7799 16C19.7799 21.1107 22.1825 25.6466 25.8692 28.5774C23.156 30.7107 19.7333 32 16 32C7.15598 32 0 24.844 0 16C0 7.15603 7.15598 5.34058e-05 16 5.34058e-05C19.7333 5.34058e-05 23.156 1.28937 25.8692 3.4227C22.1773 6.31202 19.7799 10.8894 19.7799 16Z" fill="#EB001B"/>
<path d="M51.7384 16C51.7384 7.15603 44.5824 5.34058e-05 35.7384 5.34058e-05C32.0051 5.34058e-05 28.5824 1.28937 25.8691 3.4227C29.6025 6.35862 31.9585 10.8894 31.9585 16C31.9585 21.1107 29.5559 25.6466 25.8691 28.5774C28.5772 30.7107 31.9999 32 35.7332 32C44.5824 32 51.7384 24.7974 51.7384 16Z" fill="#F79E1B"/>
</svg>
