<svg width="228" height="32" viewBox="0 0 228 32" fill="none" xmlns="http://www.w3.org/2000/svg">
<path d="M0 4C0 1.79086 1.79086 0 4 0H224C226.209 0 228 1.79086 228 4V28C228 30.2091 226.209 32 224 32H4C1.79086 32 0 30.2091 0 28V4Z" fill="#101C21"/>
<path d="M20.12 14.014H21.45C21.3753 13.482 21.2167 13.0153 20.974 12.614C20.7313 12.2033 20.428 11.8627 20.064 11.592C19.7 11.3213 19.2847 11.116 18.818 10.976C18.3513 10.836 17.8567 10.766 17.334 10.766C16.5687 10.766 15.8873 10.906 15.29 11.186C14.702 11.4567 14.2073 11.83 13.806 12.306C13.414 12.782 13.1153 13.342 12.91 13.986C12.7047 14.6207 12.602 15.302 12.602 16.03C12.602 16.758 12.6953 17.4393 12.882 18.074C13.078 18.7087 13.3673 19.2593 13.75 19.726C14.1327 20.1927 14.6133 20.5613 15.192 20.832C15.7707 21.0933 16.4473 21.224 17.222 21.224C18.5007 21.224 19.5087 20.874 20.246 20.174C20.9833 19.474 21.4173 18.494 21.548 17.234H20.218C20.19 17.6447 20.106 18.0273 19.966 18.382C19.826 18.7367 19.63 19.0447 19.378 19.306C19.1353 19.558 18.8413 19.7587 18.496 19.908C18.16 20.048 17.7727 20.118 17.334 20.118C16.7367 20.118 16.2233 20.006 15.794 19.782C15.3647 19.558 15.01 19.2593 14.73 18.886C14.4593 18.5033 14.2587 18.06 14.128 17.556C13.9973 17.0427 13.932 16.5013 13.932 15.932C13.932 15.4093 13.9973 14.9053 14.128 14.42C14.2587 13.9347 14.4593 13.5053 14.73 13.132C15.01 12.7493 15.36 12.446 15.78 12.222C16.2093 11.998 16.7227 11.886 17.32 11.886C18.02 11.886 18.622 12.0633 19.126 12.418C19.6393 12.7727 19.9707 13.3047 20.12 14.014ZM23.8675 17.388C23.8675 16.9493 23.9235 16.562 24.0355 16.226C24.1568 15.8807 24.3202 15.5913 24.5255 15.358C24.7308 15.1247 24.9688 14.9473 25.2395 14.826C25.5195 14.7047 25.8135 14.644 26.1215 14.644C26.4295 14.644 26.7188 14.7047 26.9895 14.826C27.2695 14.9473 27.5122 15.1247 27.7175 15.358C27.9228 15.5913 28.0815 15.8807 28.1935 16.226C28.3148 16.562 28.3755 16.9493 28.3755 17.388C28.3755 17.8267 28.3148 18.2187 28.1935 18.564C28.0815 18.9 27.9228 19.1847 27.7175 19.418C27.5122 19.642 27.2695 19.8147 26.9895 19.936C26.7188 20.0573 26.4295 20.118 26.1215 20.118C25.8135 20.118 25.5195 20.0573 25.2395 19.936C24.9688 19.8147 24.7308 19.642 24.5255 19.418C24.3202 19.1847 24.1568 18.9 24.0355 18.564C23.9235 18.2187 23.8675 17.8267 23.8675 17.388ZM22.6075 17.388C22.6075 17.92 22.6822 18.4147 22.8315 18.872C22.9808 19.3293 23.2048 19.7307 23.5035 20.076C23.8022 20.412 24.1708 20.678 24.6095 20.874C25.0482 21.0607 25.5522 21.154 26.1215 21.154C26.7002 21.154 27.2042 21.0607 27.6335 20.874C28.0722 20.678 28.4408 20.412 28.7395 20.076C29.0382 19.7307 29.2622 19.3293 29.4115 18.872C29.5608 18.4147 29.6355 17.92 29.6355 17.388C29.6355 16.856 29.5608 16.3613 29.4115 15.904C29.2622 15.4373 29.0382 15.036 28.7395 14.7C28.4408 14.3547 28.0722 14.084 27.6335 13.888C27.2042 13.692 26.7002 13.594 26.1215 13.594C25.5522 13.594 25.0482 13.692 24.6095 13.888C24.1708 14.084 23.8022 14.3547 23.5035 14.7C23.2048 15.036 22.9808 15.4373 22.8315 15.904C22.6822 16.3613 22.6075 16.856 22.6075 17.388ZM31.0386 13.762V21H32.2286V16.912C32.2286 16.5853 32.2706 16.2867 32.3546 16.016C32.4479 15.736 32.5832 15.4933 32.7606 15.288C32.9379 15.0827 33.1572 14.924 33.4186 14.812C33.6892 14.7 34.0066 14.644 34.3706 14.644C34.8279 14.644 35.1872 14.7747 35.4486 15.036C35.7099 15.2973 35.8406 15.652 35.8406 16.1V21H37.0306V16.24C37.0306 15.848 36.9886 15.4933 36.9046 15.176C36.8299 14.8493 36.6946 14.5693 36.4986 14.336C36.3026 14.1027 36.0459 13.9207 35.7286 13.79C35.4112 13.6593 35.0146 13.594 34.5386 13.594C33.4652 13.594 32.6812 14.0327 32.1866 14.91H32.1586V13.762H31.0386ZM38.8179 13.762V21H40.0079V16.912C40.0079 16.5853 40.0499 16.2867 40.1339 16.016C40.2272 15.736 40.3625 15.4933 40.5399 15.288C40.7172 15.0827 40.9365 14.924 41.1979 14.812C41.4685 14.7 41.7859 14.644 42.1499 14.644C42.6072 14.644 42.9665 14.7747 43.2279 15.036C43.4892 15.2973 43.6199 15.652 43.6199 16.1V21H44.8099V16.24C44.8099 15.848 44.7679 15.4933 44.6839 15.176C44.6092 14.8493 44.4739 14.5693 44.2779 14.336C44.0819 14.1027 43.8252 13.9207 43.5079 13.79C43.1905 13.6593 42.7939 13.594 42.3179 13.594C41.2445 13.594 40.4605 14.0327 39.9659 14.91H39.9379V13.762H38.8179ZM51.6232 16.688H47.4652C47.4838 16.408 47.5445 16.1467 47.6472 15.904C47.7498 15.652 47.8898 15.4327 48.0672 15.246C48.2445 15.0593 48.4545 14.9147 48.6972 14.812C48.9492 14.7 49.2292 14.644 49.5372 14.644C49.8358 14.644 50.1065 14.7 50.3492 14.812C50.6012 14.9147 50.8158 15.0593 50.9932 15.246C51.1798 15.4233 51.3245 15.638 51.4272 15.89C51.5392 16.142 51.6045 16.408 51.6232 16.688ZM52.7712 18.704H51.5952C51.4925 19.18 51.2778 19.5347 50.9512 19.768C50.6338 20.0013 50.2232 20.118 49.7192 20.118C49.3272 20.118 48.9865 20.0527 48.6972 19.922C48.4078 19.7913 48.1698 19.6187 47.9832 19.404C47.7965 19.18 47.6612 18.928 47.5772 18.648C47.4932 18.3587 47.4558 18.0553 47.4652 17.738H52.8832C52.9018 17.2993 52.8598 16.8373 52.7572 16.352C52.6638 15.8667 52.4865 15.4187 52.2252 15.008C51.9732 14.5973 51.6325 14.2613 51.2032 14C50.7832 13.7293 50.2512 13.594 49.6072 13.594C49.1125 13.594 48.6552 13.6873 48.2352 13.874C47.8245 14.0607 47.4652 14.322 47.1572 14.658C46.8585 14.994 46.6252 15.3907 46.4572 15.848C46.2892 16.3053 46.2052 16.8093 46.2052 17.36C46.2238 17.9107 46.3032 18.4193 46.4432 18.886C46.5925 19.3527 46.8118 19.754 47.1012 20.09C47.3905 20.426 47.7452 20.6873 48.1652 20.874C48.5945 21.0607 49.0985 21.154 49.6772 21.154C50.4985 21.154 51.1798 20.9487 51.7212 20.538C52.2625 20.1273 52.6125 19.516 52.7712 18.704ZM59.0307 16.086H60.2627C60.216 15.6567 60.104 15.288 59.9267 14.98C59.7494 14.6627 59.5207 14.4013 59.2407 14.196C58.97 13.9907 58.6527 13.8413 58.2887 13.748C57.934 13.6453 57.5514 13.594 57.1407 13.594C56.5714 13.594 56.072 13.6967 55.6427 13.902C55.2134 14.098 54.854 14.3733 54.5647 14.728C54.2847 15.0733 54.0747 15.484 53.9347 15.96C53.7947 16.4267 53.7247 16.9307 53.7247 17.472C53.7247 18.0133 53.7947 18.5127 53.9347 18.97C54.084 19.418 54.2987 19.8053 54.5787 20.132C54.868 20.4587 55.2227 20.7107 55.6427 20.888C56.072 21.0653 56.562 21.154 57.1127 21.154C58.0367 21.154 58.7647 20.9113 59.2967 20.426C59.838 19.9407 60.174 19.25 60.3047 18.354H59.0867C59.012 18.914 58.8067 19.348 58.4707 19.656C58.144 19.964 57.6867 20.118 57.0987 20.118C56.7254 20.118 56.4034 20.0433 56.1327 19.894C55.862 19.7447 55.6427 19.5487 55.4747 19.306C55.3067 19.054 55.1807 18.7693 55.0967 18.452C55.022 18.1347 54.9847 17.808 54.9847 17.472C54.9847 17.108 55.022 16.758 55.0967 16.422C55.1714 16.0767 55.2927 15.7733 55.4607 15.512C55.638 15.2507 55.8714 15.0407 56.1607 14.882C56.45 14.7233 56.8094 14.644 57.2387 14.644C57.7427 14.644 58.144 14.77 58.4427 15.022C58.7414 15.274 58.9374 15.6287 59.0307 16.086ZM63.2882 13.762V11.592H62.0982V13.762H60.8662V14.812H62.0982V19.418C62.0982 19.754 62.1309 20.0247 62.1962 20.23C62.2616 20.4353 62.3596 20.594 62.4902 20.706C62.6302 20.818 62.8076 20.8973 63.0222 20.944C63.2462 20.9813 63.5122 21 63.8202 21H64.7302V19.95H64.1842C63.9976 19.95 63.8436 19.9453 63.7222 19.936C63.6102 19.9173 63.5216 19.8847 63.4562 19.838C63.3909 19.7913 63.3442 19.726 63.3162 19.642C63.2976 19.558 63.2882 19.446 63.2882 19.306V14.812H64.7302V13.762H63.2882ZM72.7907 21.966C72.6507 22.3207 72.5107 22.6193 72.3707 22.862C72.2401 23.1047 72.0907 23.3007 71.9227 23.45C71.7641 23.6087 71.5821 23.7207 71.3767 23.786C71.1807 23.8607 70.9521 23.898 70.6907 23.898C70.5507 23.898 70.4107 23.8887 70.2707 23.87C70.1307 23.8513 69.9954 23.8187 69.8647 23.772V22.68C69.9674 22.7267 70.0841 22.764 70.2147 22.792C70.3547 22.8293 70.4714 22.848 70.5647 22.848C70.8074 22.848 71.0081 22.7873 71.1667 22.666C71.3347 22.554 71.4607 22.3907 71.5447 22.176L72.0347 20.958L69.1647 13.762H70.5087L72.6227 19.684H72.6507L74.6807 13.762H75.9407L72.7907 21.966ZM77.8167 17.388C77.8167 16.9493 77.8727 16.562 77.9847 16.226C78.1061 15.8807 78.2694 15.5913 78.4747 15.358C78.6801 15.1247 78.9181 14.9473 79.1887 14.826C79.4687 14.7047 79.7627 14.644 80.0707 14.644C80.3787 14.644 80.6681 14.7047 80.9387 14.826C81.2187 14.9473 81.4614 15.1247 81.6667 15.358C81.8721 15.5913 82.0307 15.8807 82.1427 16.226C82.2641 16.562 82.3247 16.9493 82.3247 17.388C82.3247 17.8267 82.2641 18.2187 82.1427 18.564C82.0307 18.9 81.8721 19.1847 81.6667 19.418C81.4614 19.642 81.2187 19.8147 80.9387 19.936C80.6681 20.0573 80.3787 20.118 80.0707 20.118C79.7627 20.118 79.4687 20.0573 79.1887 19.936C78.9181 19.8147 78.6801 19.642 78.4747 19.418C78.2694 19.1847 78.1061 18.9 77.9847 18.564C77.8727 18.2187 77.8167 17.8267 77.8167 17.388ZM76.5567 17.388C76.5567 17.92 76.6314 18.4147 76.7807 18.872C76.9301 19.3293 77.1541 19.7307 77.4527 20.076C77.7514 20.412 78.1201 20.678 78.5587 20.874C78.9974 21.0607 79.5014 21.154 80.0707 21.154C80.6494 21.154 81.1534 21.0607 81.5827 20.874C82.0214 20.678 82.3901 20.412 82.6887 20.076C82.9874 19.7307 83.2114 19.3293 83.3607 18.872C83.5101 18.4147 83.5847 17.92 83.5847 17.388C83.5847 16.856 83.5101 16.3613 83.3607 15.904C83.2114 15.4373 82.9874 15.036 82.6887 14.7C82.3901 14.3547 82.0214 14.084 81.5827 13.888C81.1534 13.692 80.6494 13.594 80.0707 13.594C79.5014 13.594 78.9974 13.692 78.5587 13.888C78.1201 14.084 77.7514 14.3547 77.4527 14.7C77.1541 15.036 76.9301 15.4373 76.7807 15.904C76.6314 16.3613 76.5567 16.856 76.5567 17.388ZM90.9798 21V13.762H89.7898V17.85C89.7898 18.1767 89.7431 18.48 89.6498 18.76C89.5658 19.0307 89.4351 19.2687 89.2578 19.474C89.0805 19.6793 88.8565 19.838 88.5858 19.95C88.3245 20.062 88.0118 20.118 87.6478 20.118C87.1905 20.118 86.8311 19.9873 86.5698 19.726C86.3085 19.4647 86.1778 19.11 86.1778 18.662V13.762H84.9878V18.522C84.9878 18.914 85.0251 19.2733 85.0998 19.6C85.1838 19.9173 85.3238 20.1927 85.5198 20.426C85.7158 20.6593 85.9725 20.8413 86.2898 20.972C86.6071 21.0933 87.0038 21.154 87.4798 21.154C88.0118 21.154 88.4738 21.0513 88.8658 20.846C89.2578 20.6313 89.5798 20.3 89.8318 19.852H89.8598V21H90.9798ZM92.7251 13.762V21H93.9151V17.78C93.9151 17.3133 93.9618 16.9027 94.0551 16.548C94.1484 16.184 94.2978 15.876 94.5031 15.624C94.7084 15.372 94.9791 15.1807 95.3151 15.05C95.6511 14.9193 96.0571 14.854 96.5331 14.854V13.594C95.8891 13.5753 95.3571 13.706 94.9371 13.986C94.5171 14.266 94.1624 14.7 93.8731 15.288H93.8451V13.762H92.7251ZM107.738 20.972C107.532 21.0933 107.248 21.154 106.884 21.154C106.576 21.154 106.328 21.07 106.142 20.902C105.964 20.7247 105.876 20.44 105.876 20.048C105.549 20.44 105.166 20.7247 104.728 20.902C104.298 21.07 103.832 21.154 103.328 21.154C103.001 21.154 102.688 21.1167 102.39 21.042C102.1 20.9673 101.848 20.8507 101.634 20.692C101.419 20.5333 101.246 20.328 101.116 20.076C100.994 19.8147 100.934 19.502 100.934 19.138C100.934 18.7273 101.004 18.3913 101.144 18.13C101.284 17.8687 101.466 17.6587 101.69 17.5C101.923 17.332 102.184 17.206 102.474 17.122C102.772 17.038 103.076 16.968 103.384 16.912C103.71 16.8467 104.018 16.8 104.308 16.772C104.606 16.7347 104.868 16.688 105.092 16.632C105.316 16.5667 105.493 16.478 105.624 16.366C105.754 16.2447 105.82 16.072 105.82 15.848C105.82 15.5867 105.768 15.3767 105.666 15.218C105.572 15.0593 105.446 14.938 105.288 14.854C105.138 14.77 104.966 14.714 104.77 14.686C104.583 14.658 104.396 14.644 104.21 14.644C103.706 14.644 103.286 14.742 102.95 14.938C102.614 15.1247 102.432 15.484 102.404 16.016H101.214C101.232 15.568 101.326 15.19 101.494 14.882C101.662 14.574 101.886 14.3267 102.166 14.14C102.446 13.944 102.763 13.804 103.118 13.72C103.482 13.636 103.869 13.594 104.28 13.594C104.606 13.594 104.928 13.6173 105.246 13.664C105.572 13.7107 105.866 13.8087 106.128 13.958C106.389 14.098 106.599 14.2987 106.758 14.56C106.916 14.8213 106.996 15.162 106.996 15.582V19.306C106.996 19.586 107.01 19.7913 107.038 19.922C107.075 20.0527 107.187 20.118 107.374 20.118C107.476 20.118 107.598 20.0947 107.738 20.048V20.972ZM105.806 17.262C105.656 17.374 105.46 17.458 105.218 17.514C104.975 17.5607 104.718 17.6027 104.448 17.64C104.186 17.668 103.92 17.7053 103.65 17.752C103.379 17.7893 103.136 17.8547 102.922 17.948C102.707 18.0413 102.53 18.1767 102.39 18.354C102.259 18.522 102.194 18.7553 102.194 19.054C102.194 19.25 102.231 19.418 102.306 19.558C102.39 19.6887 102.492 19.796 102.614 19.88C102.744 19.964 102.894 20.0247 103.062 20.062C103.23 20.0993 103.407 20.118 103.594 20.118C103.986 20.118 104.322 20.0667 104.602 19.964C104.882 19.852 105.11 19.7167 105.288 19.558C105.465 19.39 105.596 19.2127 105.68 19.026C105.764 18.83 105.806 18.648 105.806 18.48V17.262ZM113.759 16.086H114.991C114.945 15.6567 114.833 15.288 114.655 14.98C114.478 14.6627 114.249 14.4013 113.969 14.196C113.699 13.9907 113.381 13.8413 113.017 13.748C112.663 13.6453 112.28 13.594 111.869 13.594C111.3 13.594 110.801 13.6967 110.371 13.902C109.942 14.098 109.583 14.3733 109.293 14.728C109.013 15.0733 108.803 15.484 108.663 15.96C108.523 16.4267 108.453 16.9307 108.453 17.472C108.453 18.0133 108.523 18.5127 108.663 18.97C108.813 19.418 109.027 19.8053 109.307 20.132C109.597 20.4587 109.951 20.7107 110.371 20.888C110.801 21.0653 111.291 21.154 111.841 21.154C112.765 21.154 113.493 20.9113 114.025 20.426C114.567 19.9407 114.903 19.25 115.033 18.354H113.815C113.741 18.914 113.535 19.348 113.199 19.656C112.873 19.964 112.415 20.118 111.827 20.118C111.454 20.118 111.132 20.0433 110.861 19.894C110.591 19.7447 110.371 19.5487 110.203 19.306C110.035 19.054 109.909 18.7693 109.825 18.452C109.751 18.1347 109.713 17.808 109.713 17.472C109.713 17.108 109.751 16.758 109.825 16.422C109.9 16.0767 110.021 15.7733 110.189 15.512C110.367 15.2507 110.6 15.0407 110.889 14.882C111.179 14.7233 111.538 14.644 111.967 14.644C112.471 14.644 112.873 14.77 113.171 15.022C113.47 15.274 113.666 15.6287 113.759 16.086ZM121.279 16.086H122.511C122.464 15.6567 122.352 15.288 122.175 14.98C121.997 14.6627 121.769 14.4013 121.489 14.196C121.218 13.9907 120.901 13.8413 120.537 13.748C120.182 13.6453 119.799 13.594 119.389 13.594C118.819 13.594 118.32 13.6967 117.891 13.902C117.461 14.098 117.102 14.3733 116.813 14.728C116.533 15.0733 116.323 15.484 116.183 15.96C116.043 16.4267 115.973 16.9307 115.973 17.472C115.973 18.0133 116.043 18.5127 116.183 18.97C116.332 19.418 116.547 19.8053 116.827 20.132C117.116 20.4587 117.471 20.7107 117.891 20.888C118.32 21.0653 118.81 21.154 119.361 21.154C120.285 21.154 121.013 20.9113 121.545 20.426C122.086 19.9407 122.422 19.25 122.553 18.354H121.335C121.26 18.914 121.055 19.348 120.719 19.656C120.392 19.964 119.935 20.118 119.347 20.118C118.973 20.118 118.651 20.0433 118.381 19.894C118.11 19.7447 117.891 19.5487 117.723 19.306C117.555 19.054 117.429 18.7693 117.345 18.452C117.27 18.1347 117.233 17.808 117.233 17.472C117.233 17.108 117.27 16.758 117.345 16.422C117.419 16.0767 117.541 15.7733 117.709 15.512C117.886 15.2507 118.119 15.0407 118.409 14.882C118.698 14.7233 119.057 14.644 119.487 14.644C119.991 14.644 120.392 14.77 120.691 15.022C120.989 15.274 121.185 15.6287 121.279 16.086ZM124.752 17.388C124.752 16.9493 124.808 16.562 124.92 16.226C125.042 15.8807 125.205 15.5913 125.41 15.358C125.616 15.1247 125.854 14.9473 126.124 14.826C126.404 14.7047 126.698 14.644 127.006 14.644C127.314 14.644 127.604 14.7047 127.874 14.826C128.154 14.9473 128.397 15.1247 128.602 15.358C128.808 15.5913 128.966 15.8807 129.078 16.226C129.2 16.562 129.26 16.9493 129.26 17.388C129.26 17.8267 129.2 18.2187 129.078 18.564C128.966 18.9 128.808 19.1847 128.602 19.418C128.397 19.642 128.154 19.8147 127.874 19.936C127.604 20.0573 127.314 20.118 127.006 20.118C126.698 20.118 126.404 20.0573 126.124 19.936C125.854 19.8147 125.616 19.642 125.41 19.418C125.205 19.1847 125.042 18.9 124.92 18.564C124.808 18.2187 124.752 17.8267 124.752 17.388ZM123.492 17.388C123.492 17.92 123.567 18.4147 123.716 18.872C123.866 19.3293 124.09 19.7307 124.388 20.076C124.687 20.412 125.056 20.678 125.494 20.874C125.933 21.0607 126.437 21.154 127.006 21.154C127.585 21.154 128.089 21.0607 128.518 20.874C128.957 20.678 129.326 20.412 129.624 20.076C129.923 19.7307 130.147 19.3293 130.296 18.872C130.446 18.4147 130.52 17.92 130.52 17.388C130.52 16.856 130.446 16.3613 130.296 15.904C130.147 15.4373 129.923 15.036 129.624 14.7C129.326 14.3547 128.957 14.084 128.518 13.888C128.089 13.692 127.585 13.594 127.006 13.594C126.437 13.594 125.933 13.692 125.494 13.888C125.056 14.084 124.687 14.3547 124.388 14.7C124.09 15.036 123.866 15.4373 123.716 15.904C123.567 16.3613 123.492 16.856 123.492 17.388ZM137.915 21V13.762H136.725V17.85C136.725 18.1767 136.679 18.48 136.585 18.76C136.501 19.0307 136.371 19.2687 136.193 19.474C136.016 19.6793 135.792 19.838 135.521 19.95C135.26 20.062 134.947 20.118 134.583 20.118C134.126 20.118 133.767 19.9873 133.505 19.726C133.244 19.4647 133.113 19.11 133.113 18.662V13.762H131.923V18.522C131.923 18.914 131.961 19.2733 132.035 19.6C132.119 19.9173 132.259 20.1927 132.455 20.426C132.651 20.6593 132.908 20.8413 133.225 20.972C133.543 21.0933 133.939 21.154 134.415 21.154C134.947 21.154 135.409 21.0513 135.801 20.846C136.193 20.6313 136.515 20.3 136.767 19.852H136.795V21H137.915ZM139.703 13.762V21H140.893V16.912C140.893 16.5853 140.935 16.2867 141.019 16.016C141.112 15.736 141.247 15.4933 141.425 15.288C141.602 15.0827 141.821 14.924 142.083 14.812C142.353 14.7 142.671 14.644 143.035 14.644C143.492 14.644 143.851 14.7747 144.113 15.036C144.374 15.2973 144.505 15.652 144.505 16.1V21H145.695V16.24C145.695 15.848 145.653 15.4933 145.569 15.176C145.494 14.8493 145.359 14.5693 145.163 14.336C144.967 14.1027 144.71 13.9207 144.393 13.79C144.075 13.6593 143.679 13.594 143.203 13.594C142.129 13.594 141.345 14.0327 140.851 14.91H140.823V13.762H139.703ZM149.134 13.762V11.592H147.944V13.762H146.712V14.812H147.944V19.418C147.944 19.754 147.977 20.0247 148.042 20.23C148.107 20.4353 148.205 20.594 148.336 20.706C148.476 20.818 148.653 20.8973 148.868 20.944C149.092 20.9813 149.358 21 149.666 21H150.576V19.95H150.03C149.843 19.95 149.689 19.9453 149.568 19.936C149.456 19.9173 149.367 19.8847 149.302 19.838C149.237 19.7913 149.19 19.726 149.162 19.642C149.143 19.558 149.134 19.446 149.134 19.306V14.812H150.576V13.762H149.134Z" fill="white"/>
<path d="M4 1H224V-1H4V1ZM227 4V28H229V4H227ZM224 31H4V33H224V31ZM1 28V4H-1V28H1ZM4 31C2.34314 31 1 29.6569 1 28H-1C-1 30.7614 1.23857 33 4 33V31ZM227 28C227 29.6569 225.657 31 224 31V33C226.761 33 229 30.7614 229 28H227ZM224 1C225.657 1 227 2.34315 227 4H229C229 1.23858 226.761 -1 224 -1V1ZM4 -1C1.23858 -1 -1 1.23858 -1 4H1C1 2.34315 2.34315 1 4 1V-1Z" fill="#DBDBDB"/>
<path fill-rule="evenodd" clip-rule="evenodd" d="M178.147 13.5156L178.198 14.4498C178.78 13.7273 179.544 13.366 180.49 13.366C182.13 13.366 182.964 14.3299 182.993 16.2577V21.5991H181.226V16.3623C181.226 15.8493 181.118 15.4698 180.902 15.2228C180.686 14.9763 180.333 14.8531 179.843 14.8531C179.13 14.8531 178.598 15.1846 178.25 15.8467V21.5991H176.481V13.5156H178.147H178.147ZM188.263 21.7487C187.142 21.7487 186.233 21.3866 185.538 20.662C184.841 19.9374 184.493 18.9722 184.493 17.7669V17.5429C184.493 16.7363 184.645 16.015 184.948 15.3801C185.251 14.7451 185.677 14.2509 186.225 13.8968C186.773 13.5437 187.385 13.3669 188.059 13.3669C189.131 13.3669 189.96 13.7179 190.544 14.42C191.129 15.1225 191.421 16.1158 191.421 17.401V18.1332H186.276C186.33 18.8005 186.546 19.3283 186.927 19.7168C187.308 20.1052 187.788 20.2995 188.365 20.2995C189.175 20.2995 189.835 19.9637 190.344 19.2909L191.297 20.2251C190.982 20.7079 190.561 21.0827 190.035 21.3492C189.508 21.6157 188.918 21.7487 188.263 21.7487H188.263ZM188.052 14.8238C187.566 14.8238 187.175 14.998 186.877 15.3465C186.578 15.695 186.388 16.1808 186.305 16.8034H189.675V16.6687C189.636 16.0609 189.478 15.6019 189.202 15.2904C188.925 14.9793 188.542 14.8238 188.052 14.8238ZM195.009 11.5513V13.516H196.399V14.8607H195.009V19.373C195.009 19.6815 195.069 19.9042 195.187 20.0415C195.306 20.1783 195.518 20.2468 195.824 20.2468C196.032 20.2462 196.24 20.2211 196.442 20.172V21.5766C196.04 21.6913 195.652 21.7483 195.278 21.7483C193.92 21.7483 193.241 20.979 193.241 19.4401V14.8603H191.944V13.5156H193.24V11.5508H195.008L195.009 11.5513ZM199.63 21.5995H197.862V10.1245H199.63V21.5995ZM203.436 21.5995H201.668V13.516H203.436V21.5995ZM201.559 11.4165C201.559 11.1382 201.644 10.9065 201.817 10.7221C201.989 10.5381 202.235 10.4458 202.555 10.4458C202.876 10.4458 203.123 10.5381 203.298 10.7221C203.472 10.9065 203.56 11.1382 203.56 11.417C203.56 11.6907 203.472 11.9185 203.298 12.1004C203.123 12.2823 202.876 12.3732 202.555 12.3732C202.235 12.3732 201.989 12.2823 201.817 12.1004C201.644 11.9189 201.559 11.6907 201.559 11.417V11.4165ZM205.983 21.5995V14.8603H204.782V13.5156H205.983V12.7761C205.983 11.8794 206.226 11.1875 206.711 10.6991C207.196 10.2112 207.875 9.96729 208.748 9.96729C209.059 9.96729 209.389 10.0119 209.738 10.1016L209.695 11.5211C209.472 11.4787 209.245 11.4587 209.018 11.4616C208.174 11.4616 207.752 11.907 207.752 12.7986V13.5156H209.352V14.8603H207.752V21.5991H205.983V21.5995ZM213.399 18.9998L215 13.516H216.885L213.756 22.8248C213.275 24.1844 212.46 24.8644 211.31 24.8644C211.053 24.8644 210.769 24.8193 210.459 24.7297V23.325L210.794 23.3476C211.24 23.3476 211.576 23.2643 211.802 23.0972C212.027 22.9306 212.205 22.6506 212.336 22.257L212.591 21.5621L209.826 13.516H211.732L213.399 18.9998Z" fill="white"/>
<path d="M167.572 14.0074L167.566 14.0048C167.563 14.0035 167.56 14.0023 167.557 13.9993C167.552 13.9941 167.548 13.9878 167.546 13.9809C167.544 13.9741 167.544 13.9668 167.545 13.9598L167.866 11.9512L169.37 13.4923L167.806 14.174C167.801 14.1758 167.797 14.1766 167.792 14.1765H167.786C167.784 14.1752 167.782 14.1735 167.777 14.1693C167.719 14.1029 167.65 14.048 167.572 14.0074ZM169.754 13.885L171.362 15.5323C171.696 15.8748 171.864 16.0457 171.925 16.2437C171.934 16.273 171.941 16.3024 171.947 16.3325L168.103 14.6653C168.101 14.6644 168.099 14.6635 168.097 14.6627C168.082 14.6563 168.064 14.6491 168.064 14.633C168.064 14.6168 168.082 14.6092 168.097 14.6028L168.102 14.6007L169.754 13.885ZM171.882 16.8612C171.799 17.021 171.637 17.1868 171.363 17.4677L169.549 19.3245L167.204 18.8243L167.192 18.8218C167.171 18.8184 167.149 18.8145 167.149 18.7954C167.14 18.6963 167.111 18.6002 167.064 18.5129C167.018 18.4257 166.954 18.3493 166.877 18.2884C166.867 18.2786 166.87 18.2633 166.873 18.2493C166.873 18.2472 166.873 18.245 166.874 18.2433L167.315 15.4698L167.316 15.4604C167.319 15.4392 167.323 15.4145 167.341 15.4145C167.436 15.4025 167.527 15.3713 167.61 15.3228C167.692 15.2743 167.765 15.2094 167.823 15.1319C167.826 15.1277 167.829 15.123 167.834 15.1204C167.847 15.1141 167.863 15.1204 167.877 15.1264L171.881 16.8612H171.882ZM169.132 19.7517L166.15 22.8057L166.661 19.5927L166.662 19.5885C166.662 19.5842 166.663 19.58 166.664 19.5761C166.668 19.5659 166.679 19.5617 166.689 19.5574L166.694 19.5553C166.806 19.5065 166.905 19.4312 166.983 19.3356C166.993 19.3237 167.005 19.3122 167.02 19.3101C167.024 19.3094 167.028 19.3094 167.032 19.3101L169.132 19.7521L169.132 19.7517ZM165.519 23.4521L165.183 23.7964L161.467 18.296C161.466 18.294 161.464 18.2921 161.463 18.2901C161.457 18.282 161.451 18.2739 161.452 18.2646C161.452 18.2578 161.457 18.2518 161.461 18.2467L161.465 18.2412C161.477 18.2242 161.486 18.2072 161.497 18.1889L161.505 18.1741L161.506 18.1728C161.512 18.1626 161.517 18.1528 161.527 18.1473C161.536 18.143 161.548 18.1447 161.558 18.1469L165.674 19.0164C165.686 19.0183 165.697 19.0231 165.706 19.0304C165.711 19.036 165.713 19.0419 165.714 19.0487C165.743 19.16 165.796 19.263 165.87 19.3496C165.944 19.4362 166.037 19.5042 166.14 19.5481C166.152 19.554 166.147 19.5672 166.142 19.5812C166.139 19.5874 166.137 19.5938 166.135 19.6004C166.084 19.9234 165.639 22.702 165.519 23.4521ZM164.817 24.1708C164.569 24.422 164.423 24.555 164.258 24.6086C164.095 24.6613 163.921 24.6613 163.758 24.6086C163.564 24.5457 163.397 24.3748 163.063 24.0323L159.331 20.2102L160.306 18.662C160.311 18.6543 160.315 18.6475 160.323 18.642C160.333 18.6343 160.348 18.6377 160.36 18.642C160.584 18.7111 160.824 18.6987 161.04 18.6067C161.051 18.6025 161.063 18.5995 161.071 18.6076C161.076 18.6116 161.079 18.6162 161.083 18.6212L164.817 24.1712V24.1708ZM158.972 19.8418L158.115 18.965L159.806 18.2263C159.81 18.2244 159.815 18.2234 159.82 18.2234C159.834 18.2234 159.842 18.2378 159.85 18.251C159.867 18.2778 159.885 18.3039 159.904 18.3292L159.909 18.336C159.914 18.3432 159.911 18.3504 159.906 18.3572L158.972 19.8418H158.972ZM157.737 18.577L156.654 17.4677C156.469 17.279 156.336 17.1422 156.243 17.0244L159.536 17.724C159.54 17.7248 159.544 17.7255 159.548 17.7261C159.569 17.7295 159.591 17.7333 159.591 17.7529C159.591 17.7741 159.567 17.7839 159.546 17.792L159.536 17.7962L157.737 18.577ZM156.053 16.4541C156.057 16.3826 156.07 16.312 156.091 16.2437C156.152 16.0457 156.319 15.8748 156.654 15.5323L158.039 14.1128C158.678 15.0613 159.318 16.0086 159.959 16.9547C159.97 16.97 159.983 16.987 159.97 16.9998C159.909 17.0682 159.849 17.143 159.806 17.2242C159.801 17.2346 159.794 17.2437 159.785 17.2505C159.78 17.2539 159.774 17.2527 159.768 17.2514H159.767L156.053 16.4537V16.4541ZM158.41 13.7328L160.273 11.8241C160.449 11.9028 161.087 12.1786 161.656 12.4251C162.088 12.6121 162.481 12.7821 162.605 12.8373C162.617 12.8424 162.629 12.8475 162.634 12.8603C162.637 12.8679 162.636 12.8777 162.634 12.8858C162.604 13.0236 162.609 13.1667 162.647 13.3023C162.685 13.4379 162.755 13.5618 162.851 13.6627C162.863 13.6754 162.851 13.6937 162.84 13.7094L162.834 13.7184L160.942 16.7201C160.937 16.7286 160.933 16.7359 160.924 16.7414C160.914 16.7478 160.9 16.7448 160.889 16.7418C160.815 16.7221 160.739 16.7115 160.663 16.7104C160.595 16.7104 160.521 16.7231 160.447 16.7371H160.446C160.438 16.7384 160.431 16.7401 160.424 16.735C160.417 16.7289 160.41 16.7216 160.405 16.7133L158.41 13.7328H158.41ZM160.65 11.4387L163.063 8.96772C163.397 8.6256 163.564 8.45432 163.758 8.39185C163.921 8.33911 164.095 8.33911 164.258 8.39185C164.452 8.45432 164.619 8.6256 164.953 8.96772L165.476 9.50322L163.76 12.2249C163.756 12.2328 163.75 12.2398 163.743 12.2453C163.732 12.2525 163.718 12.2496 163.705 12.2453C163.57 12.2033 163.427 12.1956 163.288 12.223C163.149 12.2504 163.019 12.312 162.909 12.4026C162.898 12.4145 162.881 12.4077 162.867 12.4013C162.643 12.3014 160.9 11.547 160.65 11.4387ZM165.84 9.87637L167.424 11.499L167.043 13.9207V13.927C167.042 13.9326 167.041 13.938 167.039 13.9432C167.035 13.9517 167.027 13.9534 167.019 13.9559C166.937 13.9813 166.86 14.0205 166.791 14.072C166.788 14.0741 166.785 14.0766 166.783 14.0792C166.778 14.0843 166.774 14.089 166.766 14.0898C166.76 14.09 166.754 14.089 166.748 14.0868L164.334 13.0362L164.33 13.0341C164.314 13.0277 164.296 13.0201 164.296 13.0039C164.282 12.8662 164.238 12.7333 164.167 12.6151C164.156 12.5955 164.143 12.5751 164.153 12.5551L165.84 9.87637ZM164.208 13.5339L166.472 14.5157C166.484 14.5216 166.498 14.5271 166.503 14.5403C166.505 14.5482 166.505 14.5566 166.503 14.5645C166.497 14.5985 166.491 14.6372 166.491 14.6763V14.7413C166.491 14.7575 166.475 14.7643 166.46 14.7707L166.455 14.7724C166.096 14.9292 161.421 16.9709 161.414 16.9709C161.407 16.9709 161.4 16.9709 161.393 16.9637C161.38 16.9509 161.393 16.9331 161.404 16.9169C161.406 16.9141 161.408 16.9113 161.41 16.9084L163.27 13.9589L163.273 13.9538C163.284 13.936 163.296 13.916 163.316 13.916L163.335 13.919C163.377 13.9249 163.415 13.9304 163.452 13.9304C163.734 13.9304 163.996 13.7898 164.154 13.5492C164.157 13.5428 164.162 13.5371 164.168 13.5322C164.179 13.5237 164.196 13.528 164.208 13.5339ZM161.616 17.4375L166.712 15.2118C166.712 15.2118 166.72 15.2118 166.727 15.219C166.755 15.2475 166.778 15.2666 166.801 15.2845L166.812 15.2917C166.823 15.2977 166.833 15.3045 166.834 15.3155C166.834 15.3198 166.834 15.3223 166.833 15.3261L166.396 18.0725L166.395 18.0835C166.392 18.1048 166.389 18.129 166.37 18.129C166.253 18.1371 166.14 18.1741 166.041 18.2368C165.942 18.2995 165.859 18.3861 165.8 18.489L165.798 18.4924C165.792 18.5022 165.786 18.5115 165.777 18.5166C165.768 18.5209 165.757 18.5192 165.748 18.517L161.684 17.6585C161.68 17.6577 161.621 17.438 161.616 17.4375Z" fill="url(#paint0_radial)"/>
<defs>
<radialGradient id="paint0_radial" cx="0" cy="0" r="1" gradientUnits="userSpaceOnUse" gradientTransform="translate(155.52 16.2703) rotate(90) scale(16.2779 18.3497)">
<stop stop-color="#20C6B7"/>
<stop offset="1" stop-color="#4D9ABF"/>
</radialGradient>
</defs>
</svg>
