<svg width="16" height="17" viewBox="0 0 16 17" fill="none" xmlns="http://www.w3.org/2000/svg">
<path d="M5 8.5C5 7.94772 5.44772 7.5 6 7.5H10C10.5523 7.5 11 7.94772 11 8.5C11 9.05228 10.5523 9.5 10 9.5H6C5.44772 9.5 5 9.05228 5 8.5Z" fill="black"/>
<path d="M6 10.5C5.44772 10.5 5 10.9477 5 11.5C5 12.0523 5.44772 12.5 6 12.5H8C8.55228 12.5 9 12.0523 9 11.5C9 10.9477 8.55228 10.5 8 10.5H6Z" fill="black"/>
<path fill-rule="evenodd" clip-rule="evenodd" d="M10.5858 2.08579C10.2107 1.71071 9.70201 1.5 9.17157 1.5H3C2.44772 1.5 2 1.94772 2 2.5V14.5C2 15.0523 2.44772 15.5 3 15.5H13C13.5523 15.5 14 15.0523 14 14.5V6.32843C14 5.79799 13.7893 5.28929 13.4142 4.91421L10.5858 2.08579ZM12 6.5V13.5H4V3.5H9V5.5C9 6.05228 9.44771 6.5 10 6.5H12Z" fill="black"/>
</svg>
