<svg width="16" height="17" viewBox="0 0 16 17" fill="none" xmlns="http://www.w3.org/2000/svg">
<g clip-path="url(#clip0)">
<path fill-rule="evenodd" clip-rule="evenodd" d="M6.77208 1.18377C6.90819 0.77543 7.29033 0.5 7.72076 0.5H8.27924C8.70967 0.5 9.09181 0.77543 9.22792 1.18377L9.75342 2.76026C10.125 2.87363 10.4812 3.02208 10.8183 3.20177L12.3051 2.4584C12.6901 2.2659 13.155 2.34136 13.4594 2.64572L13.8543 3.04062C14.1587 3.34498 14.2341 3.80995 14.0416 4.19494L13.2983 5.6817C13.4779 6.01878 13.6264 6.37503 13.7397 6.74658L15.3162 7.27208C15.7246 7.40819 16 7.79033 16 8.22076V8.77924C16 9.20967 15.7246 9.59181 15.3162 9.72792L13.7397 10.2534C13.6264 10.625 13.4779 10.9812 13.2983 11.3183L14.0416 12.8051C14.2341 13.19 14.1587 13.655 13.8543 13.9594L13.4594 14.3543C13.155 14.6586 12.6901 14.7341 12.3051 14.5416L10.8183 13.7982C10.4812 13.9779 10.125 14.1264 9.75342 14.2397L9.22792 15.8162C9.09181 16.2246 8.70967 16.5 8.27924 16.5H7.72076C7.29033 16.5 6.90819 16.2246 6.77208 15.8162L6.24658 14.2397C5.87503 14.1264 5.51879 13.9779 5.18172 13.7983L3.69491 14.5417C3.30992 14.7342 2.84495 14.6587 2.54059 14.3543L2.14568 13.9594C1.84132 13.6551 1.76587 13.1901 1.95836 12.8051L2.70176 11.3183C2.52208 10.9812 2.37363 10.625 2.26026 10.2534L0.683772 9.72792C0.27543 9.59181 0 9.20967 0 8.77924V8.22076C0 7.79033 0.27543 7.40819 0.683772 7.27208L2.26026 6.74658C2.37363 6.37502 2.52208 6.01876 2.70176 5.68167L1.95837 4.19488C1.76587 3.80989 1.84133 3.34492 2.14569 3.04056L2.54059 2.64565C2.84495 2.34129 3.30993 2.26584 3.69491 2.45833L5.18172 3.20174C5.5188 3.02207 5.87504 2.87362 6.24658 2.76026L6.77208 1.18377ZM8 12.5C10.2091 12.5 12 10.7091 12 8.5C12 6.29086 10.2091 4.5 8 4.5C5.79086 4.5 4 6.29086 4 8.5C4 10.7091 5.79086 12.5 8 12.5Z" fill="#666666"/>
</g>
<defs>
<clipPath id="clip0">
<rect width="16" height="16" fill="white" transform="translate(0 0.5)"/>
</clipPath>
</defs>
</svg>
