<svg width="16" height="17" viewBox="0 0 16 17" fill="none" xmlns="http://www.w3.org/2000/svg">
<path fill-rule="evenodd" clip-rule="evenodd" d="M8 4.5C8 5.49108 7.51941 6.36992 6.77856 6.91618C7.70587 7.37726 8.42888 8.18766 8.77539 9.17518C9.41146 8.74874 10.1767 8.5 11 8.5C13.2091 8.5 15 10.2909 15 12.5V15.5H1V10.5C1 8.92977 1.90478 7.57086 3.22144 6.91618C2.48059 6.36992 2 5.49108 2 4.5C2 2.84315 3.34315 1.5 5 1.5C6.65685 1.5 8 2.84315 8 4.5ZM6 4.5C6 5.05228 5.55228 5.5 5 5.5C4.44772 5.5 4 5.05228 4 4.5C4 3.94772 4.44772 3.5 5 3.5C5.55228 3.5 6 3.94772 6 4.5ZM7 13.5V10.5C7 9.39543 6.10457 8.5 5 8.5C3.89543 8.5 3 9.39543 3 10.5V13.5H7ZM9 13.5H13V12.5C13 11.3954 12.1046 10.5 11 10.5C9.89543 10.5 9 11.3954 9 12.5V13.5Z" fill="#666666"/>
<path d="M11 8.5C9.89543 8.5 9 7.60457 9 6.5C9 5.39543 9.89543 4.5 11 4.5C12.1046 4.5 13 5.39543 13 6.5C13 7.60457 12.1046 8.5 11 8.5Z" fill="#666666"/>
</svg>
